<svg width="500.16" height="500.16" viewBox="0 0 500.16 500.16" xmlns="http://www.w3.org/2000/svg"><path style="fill:#5d5a5a;fill-opacity:1" d="m86.516 116.096.08 2.466s7.102-.012 11.688 0c4.587.01 15.046 3.065 15.347 13.12.302 10.055.16 135.578.16 135.578h2.385l.08-136.77 90.65 136.611 23.935.16s-.263-122.728 0-134.227c.263-11.5 10.186-14.554 14.711-14.552 4.525.002 13.041 0 13.041 0v-2.704l-58.048.08.136 2.952s4.72-.184 11.768-.16c7.048.026 15.48 2.95 15.689 13.907.209 10.956.238 119.436.238 119.436l-90.412-136.135Z"/><text xml:space="preserve" style="font-style:italic;font-variant:normal;font-weight:400;font-stretch:normal;font-size:37.3333px;font-family:&quot;Snell Roundhand&quot;;-inkscape-font-specification:&quot;Snell Roundhand Italic&quot;;letter-spacing:7.81px;fill:#d9b100;fill-opacity:1" x="159.426" y="301.307"><tspan x="159.426" y="301.307" style="font-style:italic;font-variant:normal;font-weight:400;font-stretch:normal;font-size:37.3333px;font-family:&quot;Snell Roundhand&quot;;-inkscape-font-specification:&quot;Snell Roundhand Italic&quot;;letter-spacing:7.81px;fill:#d9b100;fill-opacity:1">Ned Lane</tspan></text><path style="fill:#5d5a5a;fill-opacity:1" d="M243.581 193.744s5.609-.03 7.044-.048c1.436-.02 15.54.16 15.958 14.52.417 14.359.096 59.134.096 59.134l28.465.048s.074-43.069.096-57.84c.021-14.773 12.128-15.826 17.107-15.767 4.98.06 5.463-.047 5.463-.047v-2.349h-74.277zm23.029 123.175s.152 14.296.145 29.41c-.007 15.112-13.586 15.7-17.628 15.698-4.043 0-5.563.045-5.563.045l.045 2.243 133.535.135 1.256-47.682-2.692.09s.232-3.124.05 1.3c-.18 4.424 2.43 44.134-37.459 43.87-40.663-.27-43.196.044-43.196.044v-45.214z"/></svg>